<svg xmlns="http://www.w3.org/2000/svg" viewBox="0 0 64 64" role="img" aria-labelledby="title">
  <title id="title">Centralita brain switchboard favicon</title>
  <rect width="64" height="64" rx="14" fill="#08060d"/>
  <path
    fill="#efe7ff"
    d="M28.6 14.4c-3.1-3.2-8.9-2.2-10.5 2.3-4.7.8-7.4 5.6-5.5 10-3.4 2.8-3.3 8.2.1 10.8-.8 5.9 3.4 10.5 9.1 10.5h6.8z"
  />
  <path
    fill="#efe7ff"
    d="M35.4 14.4c3.1-3.2 8.9-2.2 10.5 2.3 4.7.8 7.4 5.6 5.5 10 3.4 2.8 3.3 8.2-.1 10.8.8 5.9-3.4 10.5-9.1 10.5h-6.8z"
  />
  <path
    fill="none"
    stroke="#aa3bff"
    stroke-linecap="round"
    stroke-linejoin="round"
    stroke-width="3.2"
    d="M29 17v32M24 21h-3.5a3.5 3.5 0 0 0 0 7H25m4 7h-7m7 8h-5.5a3.5 3.5 0 0 1 0-7H25M40 21h3.5a3.5 3.5 0 0 1 0 7H39m-4 7h7m-7 8h5.5a3.5 3.5 0 0 0 0-7H39"
  />
  <path
    fill="none"
    stroke="#47bfff"
    stroke-linecap="round"
    stroke-linejoin="round"
    stroke-width="3.2"
    d="M21 28v5.5h-4M43 28v5.5h4M26 35v-5h-4M38 35v-5h4M32 20v24"
  />
  <g fill="#47bfff">
    <circle cx="17" cy="33.5" r="3.1"/>
    <circle cx="47" cy="33.5" r="3.1"/>
    <circle cx="22" cy="30" r="2.6"/>
    <circle cx="42" cy="30" r="2.6"/>
  </g>
  <circle cx="32" cy="49" r="3.4" fill="#aa3bff"/>
</svg>
